<svg xmlns="http://www.w3.org/2000/svg" width="24" height="18" viewBox="0 0 24 18"><path d="M23.545,10.444a.282.282,0,0,1,.455.22V20.25a2.251,2.251,0,0,1-2.25,2.25H2.25A2.251,2.251,0,0,1,0,20.25V10.669a.28.28,0,0,1,.455-.22C1.5,11.264,2.9,12.3,7.678,15.773,8.667,16.5,10.336,18.014,12,18c1.673.014,3.375-1.538,4.327-2.231C21.108,12.3,22.5,11.259,23.545,10.444ZM12,16.5c1.088.019,2.653-1.369,3.441-1.941,6.22-4.514,6.694-4.908,8.128-6.033A1.122,1.122,0,0,0,24,7.641V6.75A2.251,2.251,0,0,0,21.75,4.5H2.25A2.251,2.251,0,0,0,0,6.75v.891a1.129,1.129,0,0,0,.431.886c1.434,1.12,1.908,1.519,8.128,6.033C9.347,15.131,10.913,16.519,12,16.5Z" transform="translate(0 -4.5)" fill="#f2f2f2"/></svg>