<svg xmlns="http://www.w3.org/2000/svg" width="40" height="40" viewBox="0 0 40 40"><path d="M20,40A20,20,0,0,1,5.858,5.858,20,20,0,0,1,34.142,34.142,19.869,19.869,0,0,1,20,40ZM17.51,25.771h0c0,.437,0,.962.007,1.518l.007,1a.691.691,0,0,1-.162.493.568.568,0,0,1-.324.193,4.042,4.042,0,0,1-.488.022H24.1a3.005,3.005,0,0,1-.36-.016,1.344,1.344,0,0,1-.288-.072.405.405,0,0,1-.236-.214.972.972,0,0,1-.074-.407V24.768a2.632,2.632,0,0,0-.767-2.093,10.279,10.279,0,0,0,1.512-.265,6.093,6.093,0,0,0,1.386-.576,4.132,4.132,0,0,0,1.2-.981,4.6,4.6,0,0,0,.781-1.548,7.471,7.471,0,0,0,.3-2.219,4.322,4.322,0,0,0-1.166-3.038,3.927,3.927,0,0,0-.117-3.006A.951.951,0,0,0,25.975,11a2.659,2.659,0,0,0-.9.2,8.2,8.2,0,0,0-1.357.648l-.558.355a10.447,10.447,0,0,0-2.831-.383H20.3a10.5,10.5,0,0,0-2.8.382c-.162-.111-.373-.244-.626-.4a8.6,8.6,0,0,0-1.231-.569A2.835,2.835,0,0,0,14.651,11a.941.941,0,0,0-.281.039,3.985,3.985,0,0,0-.1,3.008A4.319,4.319,0,0,0,13.1,17.087a7.383,7.383,0,0,0,.3,2.212,4.849,4.849,0,0,0,.774,1.548,3.966,3.966,0,0,0,1.188.986,6.093,6.093,0,0,0,1.386.576,10.138,10.138,0,0,0,1.51.266,2.394,2.394,0,0,0-.72,1.517,2.885,2.885,0,0,1-.664.223,4.248,4.248,0,0,1-.841.072,1.724,1.724,0,0,1-.965-.317,2.6,2.6,0,0,1-.819-.921,2.427,2.427,0,0,0-.715-.767,2.1,2.1,0,0,0-.731-.353l-.294-.045-.071,0a.943.943,0,0,0-.357.069c-.077.043-.1.1-.072.169a.806.806,0,0,0,.133.205,1.067,1.067,0,0,0,.191.18l.1.072a1.776,1.776,0,0,1,.642.562,3.641,3.641,0,0,1,.464.75l.148.34a1.866,1.866,0,0,0,.648.905,2.3,2.3,0,0,0,.986.443,6.167,6.167,0,0,0,1.026.1l.151,0a4.252,4.252,0,0,0,.668-.053l.337-.059Z" transform="translate(0 0)" fill="#f2f2f2"/></svg>