<svg xmlns="http://www.w3.org/2000/svg" width="40" height="40" viewBox="0 0 40 40"><path d="M20,40A20,20,0,0,1,5.858,5.858,20,20,0,0,1,34.142,34.142,19.869,19.869,0,0,1,20,40ZM16.245,10A6.263,6.263,0,0,0,10,16.246V24.72a6.261,6.261,0,0,0,6.246,6.244H24.72a6.26,6.26,0,0,0,6.244-6.245V16.245A6.261,6.261,0,0,0,24.719,10Zm8.474,18.857H16.245a4.143,4.143,0,0,1-4.136-4.137V16.245a4.143,4.143,0,0,1,4.137-4.136H24.72a4.143,4.143,0,0,1,4.136,4.137v8.474A4.142,4.142,0,0,1,24.719,28.857Zm-4.237-13.8a5.422,5.422,0,1,0,5.423,5.422,5.438,5.438,0,0,0-5.423-5.422ZM25.915,13.8a1.3,1.3,0,1,0,1.3,1.3A1.3,1.3,0,0,0,25.915,13.8ZM20.482,23.8A3.313,3.313,0,1,1,23.8,20.483,3.317,3.317,0,0,1,20.482,23.8Z" fill="#f2f2f2"/></svg>