<svg xmlns="http://www.w3.org/2000/svg" width="40" height="40" viewBox="0 0 40 40"><path d="M20,40A20,20,0,0,1,5.858,5.858,20,20,0,0,1,34.142,34.142,19.869,19.869,0,0,1,20,40Zm3.514-20.722c1.417,0,2.166,1.006,2.166,2.91v6.885h4.279V21.693c0-3.626-1.842-5.792-4.927-5.792a4.225,4.225,0,0,0-3.856,2.126V16.2H16.9c.057,1.186,0,12.753,0,12.869h4.28V21.885a2.818,2.818,0,0,1,.142-1.043A2.382,2.382,0,0,1,23.514,19.277ZM10.254,16.2V29.072h4.279V16.2ZM12.421,10a2.23,2.23,0,1,0-.056,4.447h.028A2.23,2.23,0,1,0,12.422,10Z" transform="translate(0 0)" fill="#f2f2f2"/></svg>