<svg xmlns="http://www.w3.org/2000/svg" width="40" height="40" viewBox="0 0 40 40"><path d="M20,40A20,20,0,0,1,5.858,5.858,20,20,0,0,1,34.142,34.142,19.869,19.869,0,0,1,20,40ZM10,26.182h0A11.715,11.715,0,0,0,16.27,28h.019A11.469,11.469,0,0,0,27.962,16.5l-.014-.523A8.1,8.1,0,0,0,30,13.892a8.293,8.293,0,0,1-2.355.636,4.063,4.063,0,0,0,1.8-2.234,8.319,8.319,0,0,1-2.607.98A4.137,4.137,0,0,0,23.86,12h-.013a4.077,4.077,0,0,0-4.1,4.04,4.018,4.018,0,0,0,.105.92,11.729,11.729,0,0,1-8.456-4.221,3.973,3.973,0,0,0-.554,2.03,4.021,4.021,0,0,0,1.824,3.363,4.176,4.176,0,0,1-1.858-.508v.05a4.067,4.067,0,0,0,3.29,3.963,4.2,4.2,0,0,1-1.08.141,4.006,4.006,0,0,1-.773-.075,4.1,4.1,0,0,0,3.832,2.806A8.35,8.35,0,0,1,11,26.238h-.024A8.83,8.83,0,0,1,10,26.182Z" transform="translate(0 0)" fill="#f2f2f2"/></svg>